<svg width="1063" height="269" viewBox="0 0 1063 269" fill="none" xmlns="http://www.w3.org/2000/svg">
<mask id="mask0_17_678" style="mask-type:luminance" maskUnits="userSpaceOnUse" x="0" y="0" width="1063" height="269">
<path d="M0 0H1062.25V268.859H0V0Z" fill="white"/>
</mask>
<g mask="url(#mask0_17_678)">
<path d="M17.6798 200.299C18.4225 199.5 19.3131 198.865 20.3265 198.411C21.3318 197.953 22.4611 197.72 23.6878 197.72C24.6678 197.72 25.6038 197.867 26.4678 198.165C27.3638 198.468 28.1865 198.903 29.4625 199.283L33.3158 193.801L33.0398 193.641C32.9158 193.564 29.9638 191.828 28.5291 191.379C27.0625 190.916 25.4865 190.683 23.8385 190.683C22.3878 190.683 20.9731 190.875 19.6305 191.255C18.2625 191.644 17.0251 192.164 15.8438 192.848C14.6918 193.523 13.6145 194.355 12.6478 195.32C11.6931 196.283 10.8598 197.372 10.1731 198.547C9.49179 199.713 8.95579 200.987 8.57846 202.329C8.20913 203.672 8.02246 205.092 8.02246 206.541C8.02246 207.999 8.20913 209.42 8.57846 210.755C8.94513 212.081 9.48246 213.345 10.1731 214.52C10.8611 215.679 11.6931 216.756 12.6465 217.717C13.6291 218.684 14.7051 219.515 15.8438 220.187C17.0171 220.875 18.2878 221.411 19.6238 221.779C20.9771 222.152 22.3958 222.344 23.8385 222.344C25.4825 222.344 27.0731 222.103 28.5678 221.624C30.2238 221.096 31.6118 220.359 33.1265 218.832L29.1505 213.325L28.9078 213.509C28.1851 214.059 27.3705 214.488 26.4838 214.787C25.6051 215.089 24.6665 215.241 23.6878 215.241C22.4718 215.241 21.3398 215.008 20.3265 214.549C19.3091 214.091 18.4185 213.46 17.6825 212.671C16.9425 211.888 16.3611 210.955 15.9505 209.895C15.5385 208.851 15.3305 207.713 15.3305 206.505C15.3305 205.293 15.5385 204.147 15.9478 203.095C16.3558 202.047 16.9385 201.105 17.6798 200.299Z" fill="white"/>
<path d="M54.7414 197.72C55.9734 197.72 57.1134 197.949 58.1254 198.404C59.1508 198.867 60.0494 199.505 60.7934 200.299C61.5428 201.109 62.1308 202.056 62.5388 203.112C62.9481 204.18 63.1561 205.327 63.1561 206.521C63.1561 207.729 62.9481 208.884 62.5361 209.952C62.1201 211.013 61.5348 211.951 60.7934 212.732C60.0508 213.527 59.1521 214.153 58.1254 214.607C57.1121 215.053 55.9734 215.279 54.7414 215.279C53.5054 215.279 52.3694 215.053 51.3641 214.607C50.3508 214.161 49.4588 213.531 48.7094 212.736C47.9721 211.955 47.3841 211.013 46.9628 209.948C46.5494 208.868 46.3468 207.745 46.3468 206.521C46.3468 205.327 46.5561 204.176 46.9628 203.108C47.3788 202.043 47.9641 201.097 48.7068 200.303C49.4548 199.501 50.3468 198.867 51.3641 198.412C52.3628 197.953 53.5014 197.72 54.7414 197.72ZM68.4254 198.547C67.7428 197.368 66.9108 196.283 65.9481 195.325C64.9721 194.351 63.8908 193.52 62.7321 192.848C61.6041 192.189 60.3294 191.653 58.9441 191.256C57.5881 190.875 56.1748 190.683 54.7414 190.683C53.2921 190.683 51.8761 190.875 50.5281 191.256C49.1614 191.645 47.9228 192.164 46.7414 192.848C45.5694 193.532 44.4921 194.367 43.5468 195.325C42.5908 196.279 41.7561 197.364 41.0681 198.547C40.3828 199.713 39.8481 200.987 39.4734 202.333C39.1014 203.672 38.9121 205.089 38.9121 206.543C38.9121 208.004 39.1014 209.42 39.4734 210.755C39.8401 212.081 40.3761 213.347 41.0681 214.521C41.7521 215.676 42.5841 216.752 43.5468 217.715C44.5094 218.676 45.5841 219.504 46.7414 220.187C47.9121 220.875 49.1841 221.411 50.5201 221.78C51.8774 222.152 53.2988 222.344 54.7414 222.344C56.1708 222.344 57.5841 222.152 58.9441 221.78C60.2841 221.415 61.5601 220.879 62.7321 220.187C63.8774 219.516 64.9601 218.689 65.9508 217.715C66.9068 216.76 67.7374 215.688 68.4254 214.525C69.1068 213.359 69.6428 212.093 70.0241 210.759C70.3988 209.416 70.5881 207.996 70.5881 206.543C70.5881 205.093 70.3988 203.676 70.0241 202.333C69.6414 200.987 69.1028 199.709 68.4254 198.547Z" fill="white"/>
<path d="M83.7425 196.876H87.0571C87.4758 196.876 87.8545 196.884 88.2051 196.901L89.3531 196.979C89.8758 197.052 90.3678 197.224 90.8211 197.499C91.2571 197.764 91.6331 198.092 91.9358 198.473C92.2491 198.869 92.4918 199.3 92.6545 199.751C92.8251 200.204 92.9105 200.675 92.9105 201.155C92.9105 201.649 92.8331 202.137 92.6811 202.608C92.5358 203.061 92.3065 203.492 92.0038 203.889C91.7025 204.269 91.3305 204.593 90.9011 204.851C90.4545 205.113 89.9545 205.277 89.4105 205.339C89.1625 205.371 88.9411 205.396 88.7451 205.4C88.5465 205.416 88.3251 205.416 88.0745 205.416H83.7425V196.876ZM101.01 221.873L101.596 221.808L101.172 220.883L95.0105 209.891L95.5758 209.559C96.3478 209.112 97.0131 208.613 97.6105 208.036C98.2385 207.439 98.7651 206.788 99.2171 206.055C99.6638 205.335 100.017 204.544 100.269 203.713C100.52 202.877 100.646 201.985 100.646 201.068C100.646 199.713 100.382 198.424 99.8585 197.228C99.3345 196.024 98.6118 194.964 97.7105 194.076C96.7931 193.175 95.7105 192.455 94.4905 191.935C93.2691 191.411 91.9451 191.145 90.5545 191.145L76.2998 191.124V221.873H83.7358L83.7425 211.385L87.7131 211.237L93.5478 221.873H101.01Z" fill="white"/>
<path d="M134.158 221.873V191.124H126.912L126.916 209.915L115.001 191.124H107.421V221.873H114.324L114.33 201.719L126.693 221.873H134.158Z" fill="white"/>
<path d="M183.573 191.525L183.684 191.149L176.087 191.135L168.563 212.04L165.365 202.403L169.043 191.149L168.633 191.145L161.204 191.135L154.587 212.159L147.309 191.124C146.692 191.124 139.639 191.181 139.639 191.181C139.639 191.181 151.385 221.697 151.656 221.873H157.731L161.544 211.676L161.913 212.645L165.965 221.873H171.257H171.693C172.639 219.396 173.821 216.363 174.819 213.873C174.819 213.873 182.839 194.056 183.573 191.525Z" fill="white"/>
<path d="M194.139 210.751L194.335 210.231C194.603 209.515 194.873 208.736 195.146 207.913L196.779 202.883C197.058 202.043 197.33 201.265 197.601 200.536L197.983 199.517L201.742 210.751H194.139ZM201.207 191.135H194.681L182.918 221.873H190.123L191.845 216.781H203.847L205.983 221.873H212.467L213.118 221.796L201.207 191.135Z" fill="white"/>
<path d="M76.2973 239.072L76.2812 269.796H83.4639L83.4426 239.072H76.2973Z" fill="white"/>
<path d="M352.838 239.072L352.822 269.796H360.002L359.984 239.072H352.838Z" fill="white"/>
<path d="M110.207 254.207C109.338 253.491 108.295 252.876 107.025 252.324C105.767 251.787 104.401 251.275 102.91 250.784C102.126 250.523 101.438 250.285 100.847 250.064C100.251 249.847 99.7326 249.601 99.306 249.327C98.8606 249.052 98.526 248.745 98.3006 248.417C98.0606 248.069 97.938 247.652 97.938 247.169C97.938 246.695 98.0526 246.281 98.278 245.941C98.4993 245.613 98.794 245.348 99.154 245.151C99.5046 244.963 99.9033 244.828 100.347 244.745C100.781 244.66 101.239 244.619 101.737 244.619C102.222 244.619 102.71 244.692 103.185 244.836C103.645 244.979 104.085 245.155 104.498 245.376C104.914 245.585 105.299 245.823 105.665 246.092C106.019 246.355 106.345 246.612 106.833 247.027C106.937 247.12 107.71 247.697 107.71 247.697L111.782 243.043C111.43 242.437 111.167 242.151 110.857 241.884C110.541 241.613 110.169 241.323 109.749 241.024C109.325 240.725 108.877 240.443 108.421 240.169C107.309 239.559 106.169 239.1 105.025 238.809C103.839 238.531 102.626 238.388 101.419 238.388C99.7513 238.388 98.2246 238.596 96.8833 239.007C95.5393 239.411 94.3873 239.984 93.4566 240.709C92.51 241.441 91.8033 242.297 91.2993 243.325C90.79 244.365 90.542 245.483 90.542 246.735C90.542 247.931 90.7473 249.02 91.15 249.969C91.5473 250.919 92.1593 251.808 92.974 252.615C93.7753 253.416 94.814 254.161 96.0646 254.837C97.2993 255.504 98.7326 256.123 100.455 256.732C100.841 256.855 101.293 257.015 101.83 257.216C102.37 257.408 102.89 257.645 103.383 257.932C103.877 258.199 104.321 258.529 104.697 258.915C105.094 259.328 105.305 259.832 105.305 260.364C105.305 260.797 105.238 261.216 105.105 261.608C104.961 262.021 104.73 262.383 104.398 262.701C104.065 263.012 103.629 263.259 103.098 263.425C102.582 263.607 101.931 263.692 101.163 263.692C100.347 263.692 99.5513 263.549 98.7993 263.267C98.0726 262.992 97.326 262.599 96.5806 262.1C96.0793 261.76 95.642 261.424 95.214 261.044L94.1046 260.077L93.6646 259.668L89.0566 264.068L90.6486 265.735C91.022 266.116 91.5593 266.66 92.098 267.057C93.41 267.999 94.858 268.768 96.4006 269.345C97.9366 269.911 99.5046 270.201 101.059 270.201C102.73 270.201 104.317 269.956 105.771 269.481C107.215 269.015 108.493 268.343 109.565 267.479C110.631 266.619 111.477 265.575 112.082 264.376C112.686 263.172 112.991 261.805 112.991 260.319C112.991 258.915 112.746 257.707 112.258 256.728C111.761 255.745 111.071 254.899 110.207 254.207Z" fill="white"/>
<path d="M193.838 254.207C192.97 253.495 191.93 252.876 190.657 252.324C189.398 251.787 188.029 251.275 186.541 250.784C185.757 250.523 185.069 250.285 184.478 250.064C183.88 249.847 183.362 249.597 182.937 249.327C182.49 249.052 182.154 248.745 181.933 248.413C181.692 248.069 181.569 247.652 181.569 247.169C181.569 246.695 181.684 246.281 181.909 245.941C182.132 245.613 182.426 245.348 182.788 245.151C183.137 244.963 183.536 244.828 183.978 244.745C184.412 244.66 184.873 244.619 185.37 244.619C185.853 244.619 186.341 244.692 186.817 244.836C187.276 244.979 187.716 245.155 188.129 245.376C188.545 245.585 188.93 245.823 189.298 246.092C189.653 246.355 189.978 246.612 190.465 247.027C190.572 247.124 191.344 247.697 191.344 247.697L195.413 243.043C195.062 242.441 194.801 242.155 194.489 241.884C194.174 241.613 193.8 241.323 193.38 241.024C192.958 240.725 192.508 240.443 192.052 240.169C190.938 239.555 189.798 239.1 188.656 238.809C187.47 238.531 186.257 238.388 185.05 238.388C183.385 238.388 181.86 238.596 180.514 239.007C179.172 239.411 178.02 239.984 177.09 240.709C176.142 241.441 175.434 242.297 174.93 243.325C174.424 244.361 174.176 245.479 174.176 246.735C174.176 247.931 174.38 249.02 174.781 249.969C175.181 250.923 175.794 251.812 176.605 252.615C177.405 253.416 178.445 254.161 179.696 254.837C180.933 255.504 182.368 256.123 184.089 256.732C184.472 256.855 184.926 257.015 185.462 257.216C186.001 257.408 186.522 257.645 187.016 257.932C187.513 258.203 187.956 258.533 188.328 258.915C188.725 259.328 188.936 259.832 188.936 260.364C188.936 260.801 188.869 261.219 188.737 261.608C188.592 262.021 188.358 262.383 188.029 262.701C187.696 263.012 187.26 263.259 186.732 263.425C186.216 263.607 185.565 263.692 184.796 263.692C183.978 263.692 183.182 263.549 182.43 263.267C181.702 262.992 180.957 262.599 180.212 262.1C179.71 261.76 179.273 261.424 178.845 261.044L177.296 259.668L172.844 264.212C172.865 264.253 172.865 264.253 174.276 265.731C174.65 266.112 175.19 266.66 175.729 267.057C177.044 267.999 178.49 268.768 180.032 269.345C181.568 269.911 183.134 270.201 184.69 270.201C186.361 270.201 187.948 269.956 189.402 269.481C190.85 269.015 192.125 268.339 193.196 267.479C194.264 266.615 195.112 265.571 195.713 264.376C196.317 263.172 196.622 261.805 196.622 260.319C196.622 258.915 196.377 257.707 195.892 256.728C195.392 255.745 194.7 254.895 193.838 254.207Z" fill="white"/>
<path d="M312.862 254.207C311.992 253.491 310.95 252.876 309.679 252.324C308.42 251.787 307.052 251.275 305.564 250.784C304.78 250.523 304.092 250.285 303.502 250.064C302.906 249.847 302.387 249.601 301.96 249.327C301.514 249.052 301.176 248.745 300.955 248.413C300.714 248.069 300.59 247.652 300.59 247.169C300.59 246.699 300.706 246.285 300.93 245.941C301.154 245.613 301.448 245.348 301.808 245.151C302.159 244.963 302.558 244.828 303.002 244.745C303.435 244.66 303.894 244.619 304.391 244.619C304.876 244.619 305.364 244.692 305.839 244.836C306.299 244.979 306.739 245.155 307.152 245.376C307.567 245.585 307.954 245.823 308.319 246.092C308.674 246.355 308.999 246.612 309.487 247.027C309.591 247.12 310.364 247.697 310.364 247.697L314.434 243.043C314.086 242.437 313.822 242.151 313.511 241.884C313.195 241.613 312.823 241.323 312.403 241.024C311.979 240.725 311.531 240.443 311.075 240.169C309.959 239.555 308.819 239.1 307.679 238.809C306.492 238.531 305.278 238.388 304.074 238.388C302.406 238.388 300.879 238.596 299.538 239.007C298.194 239.411 297.042 239.984 296.111 240.709C295.16 241.445 294.454 242.301 293.954 243.325C293.444 244.361 293.196 245.479 293.196 246.735C293.196 247.931 293.402 249.02 293.804 249.969C294.202 250.919 294.814 251.808 295.628 252.615C296.43 253.416 297.468 254.161 298.719 254.837C299.954 255.504 301.387 256.123 303.11 256.732C303.495 256.855 303.947 257.015 304.484 257.216C305.024 257.408 305.544 257.645 306.038 257.932C306.532 258.203 306.976 258.533 307.351 258.915C307.748 259.328 307.959 259.832 307.959 260.364C307.959 260.797 307.892 261.216 307.759 261.608C307.618 262.021 307.384 262.377 307.052 262.701C306.719 263.012 306.283 263.259 305.752 263.425C305.236 263.607 304.586 263.692 303.816 263.692C303.002 263.692 302.206 263.549 301.454 263.267C300.726 262.992 299.978 262.599 299.234 262.1C298.732 261.76 298.296 261.424 297.866 261.044L296.767 260.085L296.319 259.668L291.864 264.212C291.887 264.253 291.887 264.253 293.322 265.755C293.696 266.136 294.224 266.668 294.752 267.057C296.064 267.999 297.512 268.768 299.055 269.345C300.59 269.911 302.159 270.201 303.714 270.201C305.384 270.201 306.971 269.956 308.426 269.481C309.87 269.015 311.147 268.343 312.219 267.479C313.286 266.619 314.131 265.575 314.736 264.376C315.34 263.172 315.646 261.805 315.646 260.319C315.646 258.915 315.4 257.707 314.912 256.728C314.415 255.745 313.726 254.899 312.862 254.207Z" fill="white"/>
<path d="M126.139 239.072H118.956V269.796H138.488V263.049H126.139V239.072Z" fill="white"/>
<path d="M226.171 191.137H218.988V221.861H238.52V215.114H226.171V191.137Z" fill="white"/>
<path d="M251.915 191.137H244.732V221.861H264.264V215.114H251.915V191.137Z" fill="white"/>
<path d="M373.804 239.072H366.619V269.796H386.154V263.049H373.804V239.072Z" fill="white"/>
<path d="M398.913 239.072H391.729V269.796H411.259V263.049H398.913V239.072Z" fill="white"/>
<path d="M144.7 269.796H166.63V263.283L151.876 263.287L151.89 257.079H163.42L163.426 251.599L151.89 251.607V245.572H166.63V239.072H144.7V269.796Z" fill="white"/>
<path d="M230.737 263.201C229.514 263.201 228.377 262.975 227.36 262.53C226.326 262.067 225.432 261.437 224.702 260.654C223.962 259.869 223.376 258.931 222.961 257.866C222.552 256.806 222.342 255.655 222.342 254.443C222.342 253.241 222.552 252.094 222.961 251.03C223.378 249.957 223.964 249.011 224.702 248.221C225.445 247.427 226.34 246.789 227.36 246.326C228.374 245.867 229.513 245.638 230.737 245.638C231.957 245.638 233.097 245.867 234.126 246.326C235.152 246.793 236.049 247.431 236.79 248.217C237.534 249.019 238.12 249.965 238.532 251.03C238.941 252.09 239.15 253.237 239.15 254.443C239.15 255.659 238.941 256.81 238.529 257.87C238.116 258.927 237.53 259.865 236.788 260.654C236.054 261.441 235.158 262.071 234.121 262.525C233.094 262.975 231.957 263.201 230.737 263.201ZM244.418 246.465C243.736 245.282 242.902 244.197 241.944 243.243C240.976 242.277 239.894 241.446 238.733 240.77C237.569 240.095 236.293 239.559 234.937 239.174C233.59 238.797 232.176 238.605 230.737 238.605C229.284 238.605 227.865 238.797 226.522 239.174C225.173 239.559 223.9 240.095 222.74 240.77C221.569 241.45 220.492 242.285 219.538 243.247C218.59 244.193 217.757 245.278 217.064 246.461C216.372 247.649 215.836 248.922 215.466 250.255C215.094 251.607 214.906 253.023 214.906 254.465C214.906 255.902 215.094 257.318 215.466 258.677C215.84 260.011 216.376 261.277 217.064 262.443C217.757 263.614 218.59 264.687 219.54 265.633C220.502 266.594 221.58 267.426 222.741 268.105C223.906 268.785 225.177 269.325 226.518 269.702C227.861 270.07 229.28 270.258 230.737 270.258C232.182 270.258 233.594 270.07 234.937 269.702C236.282 269.325 237.56 268.789 238.733 268.105C239.889 267.426 240.969 266.594 241.944 265.633C242.908 264.67 243.741 263.598 244.418 262.447C245.098 261.285 245.634 260.015 246.017 258.681C246.394 257.334 246.586 255.918 246.586 254.465C246.586 253.011 246.394 251.594 246.017 250.251C245.637 248.909 245.098 247.635 244.418 246.465Z" fill="white"/>
<path d="M252.226 269.796H259.666V259.164H269.872V252.921H259.666V245.572H273.266V239.072H252.226V269.796Z" fill="white"/>
<path d="M341.176 261.432C340.464 261.968 339.647 262.403 338.752 262.714C337.856 263.012 336.915 263.16 335.955 263.16C334.744 263.16 333.615 262.931 332.595 262.472C331.583 262.018 330.692 261.387 329.951 260.594C329.204 259.787 328.62 258.854 328.218 257.818C327.806 256.774 327.596 255.631 327.596 254.419C327.596 253.208 327.806 252.066 328.215 251.018C328.624 249.97 329.208 249.024 329.951 248.222C330.69 247.427 331.58 246.788 332.598 246.326C333.615 245.867 334.744 245.638 335.955 245.638C336.928 245.638 337.864 245.786 338.736 246.084C339.558 246.363 340.327 246.76 341.168 247.198L341.579 247.411L345.311 241.77L344.948 241.299C343.635 240.427 342.236 239.755 340.794 239.3C339.334 238.839 337.758 238.606 336.108 238.606C334.652 238.606 333.236 238.798 331.899 239.174C330.57 239.547 329.296 240.083 328.112 240.767C326.956 241.442 325.879 242.274 324.918 243.243C323.97 244.194 323.136 245.278 322.439 246.466C321.752 247.648 321.216 248.922 320.848 250.256C320.478 251.583 320.291 252.999 320.291 254.464C320.291 255.926 320.478 257.347 320.848 258.678C321.216 260.008 321.752 261.272 322.44 262.443C323.123 263.594 323.955 264.667 324.915 265.632C325.884 266.599 326.96 267.43 328.115 268.106C329.288 268.79 330.56 269.326 331.895 269.702C333.232 270.071 334.648 270.259 336.108 270.259C337.752 270.259 339.342 270.018 340.835 269.547C342.507 269.014 343.895 268.274 345.394 266.742L341.418 261.252L341.176 261.432Z" fill="white"/>
<path d="M439.02 239.076L431.115 239.039L430.549 239.42L430.464 239.505L424.984 251.227L419.017 239.072H410.996L421.231 257.281V269.796H428.752L428.713 257.147L439.02 239.076Z" fill="white"/>
<path d="M305.605 206.258V211.941H307.538L307.515 212.482C307.486 213.153 307.33 213.76 307.055 214.276C306.79 214.782 306.434 215.217 305.998 215.569C305.559 215.921 305.062 216.182 304.511 216.354C303.973 216.53 303.399 216.617 302.806 216.617C301.91 216.617 301.15 216.457 300.554 216.142C299.966 215.826 299.49 215.421 299.141 214.946C298.798 214.472 298.561 213.956 298.434 213.412C298.307 212.896 298.242 212.4 298.242 211.929C298.242 211.684 298.274 211.377 298.345 211.008C298.411 210.624 298.538 210.254 298.731 209.878C298.921 209.514 299.183 209.194 299.515 208.929C299.867 208.621 300.313 208.474 300.847 208.47L301.885 208.29L302.331 203.496C301.823 203.393 301.398 203.185 301.035 202.861C300.721 202.574 300.454 202.244 300.25 201.882C300.049 201.518 299.914 201.188 299.834 200.872C299.739 200.508 299.701 200.282 299.701 200.118C299.701 199.844 299.735 199.529 299.806 199.197C299.883 198.841 300.025 198.509 300.227 198.214C300.442 197.9 300.73 197.641 301.107 197.433C301.482 197.228 301.961 197.126 302.531 197.126C303.013 197.126 303.445 197.196 303.809 197.33C304.166 197.474 304.459 197.678 304.685 197.937C304.909 198.19 305.07 198.497 305.161 198.841L305.318 199.353C305.391 199.582 305.474 199.832 305.842 200.324L310.754 199.697C310.754 198.145 310.515 196.824 310.042 195.766C309.574 194.718 308.939 193.858 308.153 193.204C307.361 192.549 306.438 192.066 305.407 191.772C304.331 191.472 303.222 191.317 302.113 191.317C300.997 191.317 299.902 191.534 298.859 191.956C297.837 192.357 296.907 192.938 296.094 193.682C295.297 194.428 294.65 195.308 294.173 196.298C293.697 197.285 293.455 198.37 293.455 199.525C293.455 200.569 293.654 201.548 294.05 202.424C294.451 203.316 294.965 204.089 295.577 204.728L295.887 205.056L295.517 205.309C294.882 205.752 294.311 206.21 293.794 206.718C293.294 207.193 292.855 207.745 292.491 208.364C292.127 208.973 291.845 209.677 291.65 210.448C291.454 211.225 291.355 212.138 291.355 213.161C291.355 214.549 291.649 215.848 292.227 217.01C292.826 218.197 293.602 219.196 294.602 220.06C295.601 220.908 296.782 221.582 298.109 222.057C299.435 222.537 300.858 222.782 302.335 222.782C303.23 222.782 304.126 222.737 305.031 222.652C305.933 222.557 306.795 222.397 307.629 222.16C308.443 221.934 309.23 221.608 309.965 221.189C310.665 220.793 311.307 220.256 311.874 219.589C312.439 218.917 312.902 218.116 313.251 217.198C313.614 216.248 313.841 215.126 313.929 213.857L314.039 211.941H318.613V206.258C318.357 206.268 305.605 206.258 305.605 206.258Z" fill="white"/>
<path d="M865.302 219.681C867.074 224.082 855.616 230.924 862.174 252.788C868.781 245.01 875.414 237.648 871.756 226.378C870.136 221.389 875.336 217.168 879.697 217.164C881.681 217.162 882.326 218.394 883.568 221.421C887.081 229.594 887.405 241.888 886.613 253.396C891.828 245.316 895.649 233.482 896.037 221.57C896.078 218.24 897.346 217.028 899.329 217.026C903.989 217.021 910.086 219.841 910.029 222.265C909.049 240.032 888.609 261.928 877.685 269.938L876.1 269.94C876.362 262.266 877.601 253.853 876.48 246.486C870.372 254.365 859.417 262.942 852.797 269.913L851.333 269.914C850.665 269.894 849.97 252.548 849.882 251.069C849.712 248.23 849.586 245.381 849.337 242.549C849.042 239.201 848.445 236.09 848.39 232.645C848.32 228.125 850.348 221.809 852.926 218.084C855.392 214.522 863.266 214.625 865.302 219.681Z" fill="white"/>
<path d="M515.709 243.002L531.321 216.646C532.29 214.98 533.055 211.928 533.019 209.896L532.982 207.77C532.737 198.804 529.971 196.496 523.702 196.224C517.533 196.508 514.759 198.82 514.551 207.787L513.883 242.448C513.829 244.483 514.649 244.667 515.709 243.002ZM529.235 268.963L532.483 220.895C532.63 218.863 531.902 218.678 530.841 220.342L501.638 269.172C501.285 269.727 500.386 270.283 499.659 270.284L495.029 270.288C494.303 270.288 493.747 269.642 493.735 268.995L494.669 207.804C494.865 198.283 492.378 196.254 486.386 196.259C485.297 196.259 485.021 196.074 485.01 195.427C484.998 194.78 485.266 194.503 486.355 194.502C490.895 194.498 497.983 194.86 500.707 194.858L508.061 194.851C510.694 194.85 517.045 194.567 522.127 194.47L522.673 194.468C523.035 194.468 523.398 194.468 523.762 194.468L524.851 194.467C525.034 194.467 525.305 194.467 525.487 194.467C530.482 194.555 536.753 194.826 539.385 194.823L546.467 194.816C549.371 194.814 556.81 194.438 561.533 194.434C562.621 194.432 562.989 194.618 562.999 195.264C563.011 195.912 562.651 196.19 561.562 196.191C555.297 196.196 552.246 198.231 551.595 207.754L549.267 240.939C549.122 242.971 549.762 243.248 550.73 241.491L570.721 205.979C575.39 197.75 574.365 196.179 568.009 196.184C566.919 196.186 566.553 196 566.542 195.354C566.53 194.707 566.889 194.428 567.978 194.428C571.065 194.426 573.886 194.794 577.881 194.79C580.787 194.787 583.867 194.414 586.501 194.411C587.317 194.411 587.683 194.595 587.694 195.243C587.706 195.89 587.347 196.167 586.531 196.168C581.174 196.172 577.115 197.748 572.446 205.978L537.047 269.14C536.693 269.695 535.794 270.251 535.069 270.252L530.438 270.256C529.713 270.256 529.157 269.611 529.235 268.963Z" fill="white"/>
<path d="M578.278 239.803C586.313 237.209 588.865 232.493 588.766 226.854C588.68 221.862 587.376 219.922 585.469 219.923C581.201 219.927 577.624 228.25 575.508 237.125C575.088 239.067 576.292 240.361 578.278 239.803ZM557.526 252.578C557.221 235.017 571.349 217.257 586.238 217.243C593.774 217.237 599.476 221.391 599.585 227.675C599.685 233.407 591.876 238.498 578.298 240.913C576.306 241.193 574.432 243.135 574.102 245.075C573.87 247.386 573.725 249.421 573.757 251.269C573.876 258.109 578.005 260.601 581.637 260.598C586.63 260.593 596.117 252.65 599.578 242.849C599.881 241.999 600.314 241.627 600.677 241.601C601.145 241.569 601.496 242.107 601.306 242.941C600.042 248.579 587.888 270.205 574.088 270.218C564.734 270.226 557.732 264.317 557.526 252.578Z" fill="white"/>
<path d="M775.811 239.803C783.845 237.209 786.397 232.493 786.299 226.854C786.212 221.862 784.908 219.922 783.001 219.923C778.733 219.927 775.156 228.25 773.04 237.125C772.62 239.067 773.824 240.361 775.811 239.803ZM755.059 252.578C754.753 235.017 768.881 217.257 783.771 217.243C791.307 217.237 797.008 221.391 797.117 227.675C797.217 233.407 789.408 238.498 775.831 240.913C773.839 241.193 771.964 243.135 771.635 245.075C771.403 247.386 771.257 249.421 771.289 251.269C771.408 258.109 775.537 260.601 779.169 260.598C784.163 260.593 793.649 252.65 797.111 242.849C797.413 241.999 797.847 241.627 798.209 241.601C798.677 241.569 799.028 242.107 798.839 242.941C797.575 248.579 785.42 270.205 771.62 270.218C762.268 270.226 755.264 264.317 755.059 252.578Z" fill="white"/>
<path d="M621.893 258.718C626.069 258.714 632.881 248.448 635.021 240.959C636.988 233.932 637.101 230.05 637.072 228.387C636.994 223.95 635.949 221.271 633.589 221.272C627.142 221.279 618.886 242.452 619.073 253.174C619.137 256.871 620.077 258.719 621.893 258.718ZM602.946 255.223C602.637 237.476 617.181 217.498 630.89 217.486C636.882 217.48 639.048 221.915 640.04 226.72C640.348 228.754 641.198 228.876 641.8 226.935L642.578 224.392C643.272 222.451 644.214 221.447 646.849 221.444C652.568 221.44 655.661 216.539 658.476 216.536C659.656 216.535 660.16 217.235 659.722 218.66C657.218 226.842 654.69 234.802 652.29 242.938L650.186 249.807C647.948 256.742 647.877 259.711 649.874 259.708C652.873 259.799 656.564 252.771 659.529 245.743C660.053 244.634 660.32 244.264 660.774 244.264C661.409 244.263 661.782 244.816 661.176 246.482C659.009 252.399 652.24 270.43 640.162 270.255C632.894 270.076 631.46 266.058 631.264 263.848C630.986 260.718 632.922 256.856 634.893 249.496L635.494 247.531C635.838 246.42 635.564 246.042 635.018 246.042C634.565 246.043 634.117 246.32 633.678 247.246C628.952 257.418 623.452 270.084 613.92 270.094C607.29 270.099 603.098 263.911 602.946 255.223Z" fill="white"/>
<path d="M678.579 256.911C678.082 258.979 679.466 260.349 681.191 260.347C684.642 260.345 688.18 255.609 692.026 247.01C692.374 246.178 693.096 245.899 693.368 245.899C693.822 245.899 694.012 246.361 693.754 247.193C691.267 255.606 681.167 270.034 670.999 270.043C664.552 270.049 661.679 266.631 661.587 261.365C661.52 257.574 663.202 252.678 665.14 246.479L672.183 223.179C672.53 222.163 672.594 220.683 670.778 220.686L666.054 220.69C665.236 220.691 664.958 220.322 664.952 220.045C664.943 219.49 665.479 218.934 666.387 218.934C678.462 218.922 687.1 212.906 692.034 204.305C692.566 203.566 693.195 203.195 693.74 203.195C694.375 203.195 694.747 203.655 694.576 204.303L690.596 217.247C690.166 218.542 690.554 219.835 692.46 219.834C695.91 219.831 699.075 219.089 702.435 219.086C703.16 219.086 703.534 219.641 703.543 220.194C703.556 220.934 703.024 221.673 702.026 221.674L691.411 221.683C690.23 221.685 689.063 222.426 688.548 224.09L681.498 247.085C680.635 249.674 678.907 255.549 678.579 256.911Z" fill="white"/>
<path d="M799.963 230.589C799.393 230.084 800.117 228.48 800.45 227.876C803.825 221.76 809.415 216.709 815.881 216.949C823.15 217.22 825.303 221.008 825.286 225.26C825.251 228.403 823.841 230.9 821.154 238.205L817.341 248.652C816.907 249.855 818.633 249.853 819.067 248.743C828.019 225.813 832.589 217.12 841.215 217.112C845.483 217.108 847.342 219.603 847.395 222.653C847.477 227.275 844.279 231.436 840.013 231.44C837.651 231.443 836.358 230.149 834.542 230.151C832.09 230.153 826.067 233.579 818.855 252.163C816.869 257.988 818.435 262.148 818.373 263.719C818.349 267.6 813.306 270.008 809.13 270.012C802.774 270.017 797.909 266.972 800.835 257.725L805.886 237.387C807.738 230.392 807.979 227.311 805.982 227.219C805.386 227.201 804.79 227.197 803.981 228.021C801.103 230.945 800.511 231.075 799.963 230.589Z" fill="white"/>
<path d="M927.263 239.633C935.297 237.039 937.849 232.323 937.751 226.684C937.664 221.692 936.359 219.752 934.453 219.753C930.185 219.757 926.608 228.08 924.492 236.955C924.072 238.897 925.276 240.189 927.263 239.633ZM906.511 252.408C906.205 234.847 920.333 217.087 935.223 217.073C942.759 217.067 948.46 221.22 948.569 227.505C948.669 233.237 940.86 238.327 927.281 240.743C925.291 241.023 923.416 242.965 923.087 244.905C922.855 247.216 922.709 249.251 922.741 251.099C922.86 257.939 926.989 260.431 930.621 260.428C935.615 260.423 945.101 252.48 948.563 242.677C948.865 241.828 949.299 241.457 949.661 241.431C950.128 241.399 950.48 241.937 950.291 242.769C949.027 248.409 936.872 270.035 923.072 270.048C913.719 270.056 906.715 264.147 906.511 252.408Z" fill="white"/>
<path d="M713.035 197.335C711.342 197.293 708.831 197.482 707.555 197.482C706.461 197.482 705.813 197.209 705.794 196.662C705.773 196.023 706.215 195.567 707.674 195.567C710.957 195.567 716.273 194.705 720.433 193.611C724.325 192.699 727.847 191.697 729.398 191.697C730.674 191.697 730.879 192.335 730.466 193.611C727.897 201.454 724.445 210.121 721.813 218.785L714.639 241.77C714.314 242.954 714.423 243.502 715.061 243.502C715.699 243.502 716.046 242.954 716.557 241.861C721.815 229.913 728.771 216.87 738.989 216.87C745.463 216.87 748.691 220.699 748.851 225.534C748.978 229.365 746.639 235.841 741.999 249.978C739.393 256.635 739.593 259.921 741.602 260.011C744.621 260.285 748.686 253.626 752.021 246.877C752.535 245.874 752.887 245.509 753.343 245.509C753.985 245.599 754.369 246.147 753.69 247.698C751.235 253.445 743.506 270.682 731.342 269.678C724.026 269.133 721.985 265.301 722.119 261.106C722.29 258.003 723.206 255.359 725.89 248.245C729.482 238.303 731.994 231.553 731.937 229.822C731.895 228.545 731.327 227.905 730.323 227.905C727.405 227.905 720.442 232.466 713.95 251.254C712.042 257.001 712.817 261.106 712.775 262.657C712.811 266.486 707.783 268.858 703.587 268.858C697.203 268.858 692.269 265.849 695.067 256.727L710.283 206.654C711.505 201.978 713.749 197.354 713.035 197.335Z" fill="white"/>
<path d="M970.284 258.408C974.46 258.404 981.272 248.139 983.412 240.649C985.378 233.623 985.492 229.741 985.462 228.077C985.385 223.64 984.34 220.961 981.98 220.963C975.533 220.969 967.277 242.143 967.464 252.864C967.528 256.561 968.468 258.409 970.284 258.408ZM951.337 254.913C951.028 237.167 965.572 217.188 979.281 217.176C985.273 217.171 987.438 221.605 988.43 226.411C988.738 228.444 989.589 228.567 990.19 226.625L990.969 224.083C991.662 222.141 992.605 221.137 995.24 221.135C1000.96 221.131 1004.05 216.229 1006.87 216.227C1008.05 216.225 1008.55 216.925 1008.11 218.351C1005.61 226.532 1003.08 234.492 1000.68 242.628L998.577 249.497C996.338 256.432 996.269 259.401 998.265 259.399C1001.26 259.489 1004.95 252.461 1007.92 245.433C1008.44 244.324 1008.71 243.955 1009.16 243.955C1009.8 243.953 1010.17 244.507 1009.57 246.172C1007.4 252.089 1000.63 270.12 988.553 269.945C981.285 269.767 979.85 265.748 979.654 263.539C979.377 260.408 981.314 256.547 983.284 249.187L983.885 247.221C984.229 246.111 983.954 245.732 983.409 245.732C982.956 245.733 982.508 246.011 982.069 246.936C977.342 257.108 971.842 269.775 962.31 269.784C955.681 269.789 951.489 263.601 951.337 254.913Z" fill="white"/>
<path d="M1012 230.407C1011.43 229.903 1012.16 228.297 1012.49 227.693C1015.87 221.577 1021.46 216.525 1027.92 216.767C1035.19 217.037 1037.34 220.825 1037.33 225.077C1037.29 228.22 1035.88 230.717 1033.19 238.023L1029.38 248.469C1028.95 249.672 1030.67 249.671 1031.11 248.56C1040.06 225.631 1044.63 216.937 1053.26 216.929C1057.52 216.925 1059.38 219.42 1059.44 222.471C1059.52 227.092 1056.32 231.253 1052.05 231.257C1049.69 231.26 1048.4 229.967 1046.58 229.968C1044.13 229.971 1038.11 233.396 1030.9 251.98C1028.91 257.805 1030.48 261.965 1030.41 263.536C1030.39 267.417 1025.35 269.825 1021.17 269.829C1014.81 269.835 1009.95 266.789 1012.88 257.543L1017.93 237.204C1019.78 230.209 1020.02 227.128 1018.02 227.036C1017.43 227.019 1016.83 227.015 1016.02 227.839C1013.14 230.763 1012.55 230.892 1012 230.407Z" fill="white"/>
<path d="M1059.44 48.6399V20.2306C1038.68 24.1972 1018.66 33.8426 1003.26 42.9626C1027.86 43.0666 1046.1 45.5066 1059.44 48.6399Z" fill="white"/>
<path d="M1017.35 0.820511C1010.99 0.311176 1003.78 0.000511169 995.597 0.000511169C980.157 0.000511169 968.158 1.08851 958.932 2.58318V33.0725C971.278 24.1978 992.277 10.6725 1017.35 0.820511Z" fill="white"/>
<path d="M958.933 45.762C966.914 44.5846 975.55 43.778 984.789 43.3406C1002.18 31.786 1029.97 16.1953 1059.4 11.1833L1059.4 11.154H1059.39C1058.81 10.726 1052.91 6.5953 1037.27 3.4833C1000.26 14.5406 958.933 45.762 958.933 45.762Z" fill="white"/>
<path d="M804.072 105.043V133.452C824.83 129.486 844.852 119.84 860.247 110.72C835.655 110.616 817.407 108.176 804.072 105.043Z" fill="white"/>
<path d="M846.165 152.863C852.522 153.374 859.726 153.683 867.914 153.683C883.354 153.683 895.353 152.595 904.58 151.1V120.611C892.233 129.486 871.236 143.011 846.165 152.863Z" fill="white"/>
<path d="M904.578 107.921C896.596 109.098 887.961 109.905 878.722 110.342C861.33 121.897 833.541 137.487 804.106 142.499L804.113 142.529H804.124C804.702 142.957 810.605 147.087 826.24 150.199C863.249 139.142 904.578 107.921 904.578 107.921Z" fill="white"/>
<path d="M1001.65 53.2328C996.389 53.2328 991.468 53.3474 986.831 53.5474C980.197 53.8354 974.171 54.3048 968.728 54.9114C967.349 55.0661 966.016 55.2301 964.711 55.4008C959.824 56.0368 955.435 56.7794 951.508 57.5874C949.581 57.9821 947.755 58.3914 946.044 58.8127V53.4834V43.0488V5.32742C937.907 7.65009 924.976 15.0728 917.467 16.9821V70.4967C910.152 73.2461 893.491 77.6568 861.861 77.6568C826.543 77.6568 809.889 72.1581 804.073 69.6128V94.3181C816.509 97.6061 835.024 100.451 861.861 100.451C887.179 100.451 905.079 97.9181 917.467 94.8714V150.521C924.165 148.706 939.976 140.411 946.044 138.867V83.1874C953.36 80.4381 970.021 76.0274 1001.65 76.0274C1036.97 76.0274 1053.62 81.5261 1059.44 84.0701V59.3661C1047 56.0781 1028.49 53.2328 1001.65 53.2328Z" fill="white"/>
<path d="M904.579 55.4114V19.726C895.353 21.2207 883.355 22.3087 867.914 22.3087C856.794 22.3087 847.471 21.742 839.666 20.8674C851.006 32.666 871.143 47.526 904.579 55.4114Z" fill="white"/>
<path d="M804.072 27.1564V57.1457C809.124 59.4591 826.195 66.2297 854.631 67.2444C828.55 54.4844 812.78 38.4844 804.072 27.1564Z" fill="white"/>
<path d="M826.777 18.9342C810.731 15.8115 804.073 11.1542 804.073 11.1542C804.073 11.1542 824.419 48.4995 873.665 67.1409C888.22 66.5435 898.203 64.9022 904.579 63.3835C861.085 53.7622 837.809 32.5515 826.777 18.9342Z" fill="white"/>
<path d="M958.933 98.5971V134.282C968.159 132.788 980.157 131.7 995.597 131.7C1006.72 131.7 1016.04 132.266 1023.85 133.141C1012.51 121.342 992.369 106.482 958.933 98.5971Z" fill="white"/>
<path d="M1059.44 126.853V96.8634C1054.39 94.5501 1037.32 87.7794 1008.88 86.7635C1034.96 99.5248 1050.73 115.525 1059.44 126.853Z" fill="white"/>
<path d="M1036.73 135.075C1052.78 138.197 1059.44 142.855 1059.44 142.855C1059.44 142.855 1039.09 105.509 989.846 86.8681C975.291 87.4654 965.309 89.1067 958.933 90.6254C1002.43 100.247 1025.7 121.457 1036.73 135.075Z" fill="white"/>
<path d="M360.726 118.853C359.059 124.947 358.338 131.347 358.311 137.747C358.307 138.744 358.292 139.743 358.295 140.74C358.306 148.364 348.258 152.851 339.906 152.656C329.922 152.424 321.847 148.785 321.586 138.431C321.512 135.524 322.152 132.092 323.487 127.401L353.307 29.1546C357.338 16.1786 360.194 11.1973 358.819 11.1973C353.724 11.1973 350.48 11.5493 347.939 11.4893C345.762 11.4386 344.478 10.8639 344.451 9.77594C344.419 8.50526 345.302 7.61594 348.207 7.68394C354.742 7.83594 365.416 5.6546 373.714 3.67061C381.475 2.03593 388.503 0.203934 391.59 0.27594C394.131 0.33461 394.527 1.61459 393.682 4.13594C388.448 19.6253 381.439 36.7106 376.066 53.8319L362.751 94.3693C362.084 96.7106 362.662 97.9253 363.932 98.0253C364.715 98.0866 365.424 97.6639 365.787 97.4733L366.188 97.2133C376.479 90.7919 380.84 81.0919 384.199 76.1186C386.856 72.1813 389.52 67.4839 387.963 62.8213C394.352 60.5079 401.455 59.9573 408.302 61.2453C410.952 61.7439 413.726 62.6106 415.546 64.6399C418.388 67.8093 417.892 72.6599 416.198 76.3599C413.491 82.2706 407.811 92.5866 402.112 97.3079L400.955 98.3453C397.214 101.16 395.299 104.385 398.208 111.896C400.94 119.403 409.224 131.395 415.398 131.539C421.931 131.691 427.868 122.389 434.904 106.395C436.623 102.623 439.742 103.967 438.539 106.663C427.366 138.535 407.071 154.037 395.091 153.757C380.023 153.407 378.187 138.117 374.103 120.047C372.98 115.213 372.13 108.049 370.014 103.629C368.727 100.943 365.714 106.564 365.26 107.404C363.302 111.033 361.812 114.879 360.726 118.853Z" fill="white"/>
<path d="M175.583 147.146C189.38 147.146 205.749 92.5157 205.749 66.0303C205.749 57.9383 203.544 54.4423 199.495 54.4423C185.701 54.4423 169.329 109.256 169.329 135.374C169.329 143.281 171.355 147.146 175.583 147.146ZM138.431 114.589C138.431 79.6423 164.732 48.1877 197.656 48.1877C219.177 48.1877 236.467 63.0877 236.467 86.9997C236.467 121.764 210.163 153.4 177.239 153.4C155.904 153.4 138.431 138.501 138.431 114.589Z" fill="white"/>
<path d="M241.251 117.715C241.251 85.3433 267.37 48.0046 299.742 48.0046C313.17 48.0046 323.284 56.65 323.284 71.9153C323.284 82.034 316.296 92.8846 306.364 92.8846C300.111 92.8846 296.248 88.8393 296.248 83.3206C296.248 74.49 308.02 71.1806 308.02 61.7993C308.02 57.7513 306.18 53.154 301.58 53.154C288.704 53.154 274.91 86.4473 274.91 111.279C274.91 123.969 277.854 134.087 287.786 134.087C296.983 134.087 306.18 126.177 316.848 104.287C318.502 100.611 321.446 101.713 320.342 104.473C307.834 137.949 292.752 153.401 272.519 153.401C254.127 153.401 241.251 140.523 241.251 117.715Z" fill="white"/>
<path d="M378.839 177.591C378.839 170.966 383.808 163.79 393.007 163.79C404.602 163.79 408.652 181.273 415.275 181.273C421.166 181.273 422.823 172.439 435.52 131.767L457.788 59.4408C458.158 57.4168 457.788 55.3942 454.843 55.3942H443.618C440.306 55.3942 441.042 51.8955 444.352 51.8955C452.636 51.8955 460.182 51.1595 462.204 45.0862L462.94 42.8795C470.119 21.1635 490.547 0.000839233 519.808 0.000839233C550.726 0.000839233 559.928 13.6195 559.928 20.9782C559.928 27.9728 553.854 34.7822 546.31 34.7822C529.928 34.7822 520.36 8.28084 503.614 8.28084C500.484 8.28084 498.092 10.3048 497.723 15.8262C497.356 25.2115 496.251 41.9582 494.963 47.6622L494.411 50.0555C494.042 52.6315 494.78 53.7368 497.539 53.7368C534.346 53.7368 544.26 48.1808 554.198 48.1808C557.143 48.1808 556.798 49.4688 555.879 52.0448L537.046 113.421C532.332 126.609 531.77 133.519 535.819 133.703C541.892 134.07 550.174 120.267 556.983 106.649C558.087 104.442 558.64 103.703 559.559 103.703C560.847 103.89 561.582 104.809 560.111 108.123C555.142 119.901 539.5 155.05 515.022 153.762C500.302 153.026 497.774 145.926 498.14 137.459C498.51 131.202 501.223 125.089 505.444 110.599L519.786 64.7422C521.074 60.8782 518.863 57.7502 514.816 57.7502L496.435 57.4168C494.042 57.4168 491.466 58.8915 490.547 62.0195L471.224 125.326C460.182 161.581 425.582 191.393 394.847 191.393C382.886 191.393 378.839 185.137 378.839 177.591Z" fill="white"/>
<path d="M554.308 130.77C554.308 125.618 558.538 119.917 565.344 119.917C572.15 119.917 576.012 122.677 578.773 130.77C582.082 141.438 587.601 148.061 592.566 148.061C597.716 148.061 600.477 144.381 600.477 137.023C600.477 129.114 594.958 121.203 588.705 114.398L585.026 109.985C578.404 102.443 572.885 94.7166 572.885 83.314C572.885 62.1606 592.566 48.1806 615.558 48.1806C635.793 48.1806 643.333 59.4006 643.333 66.3926C643.333 73.75 638.92 77.978 632.297 77.978C626.778 77.978 621.446 73.9326 619.237 66.206C617.214 58.482 615.006 53.8846 608.936 53.8846C603.786 53.8846 599.189 57.7473 599.189 65.4713C599.189 72.4633 604.708 80.1873 611.145 87.7273L614.088 91.59C621.077 100.051 627.33 108.697 627.33 119.55C627.33 137.575 610.409 153.762 587.97 153.762C573.437 153.762 554.308 144.747 554.308 130.77Z" fill="white"/>
<path d="M672.901 11.1131C669.564 11.0291 664.616 11.4025 662.1 11.4025C659.945 11.4025 658.666 10.8625 658.63 9.78647C658.589 8.52913 659.46 7.62914 662.336 7.62914C668.805 7.62914 679.281 5.92914 687.478 3.77448C695.149 1.97714 702.092 -0.000198364 705.148 -0.000198364C707.664 -0.000198364 708.066 1.25847 707.252 3.77448C702.189 19.2318 695.386 36.3091 690.201 53.3851L676.062 98.6825C675.421 101.017 675.636 102.096 676.893 102.096C678.152 102.096 678.834 101.017 679.842 98.8611C690.205 75.3145 703.914 49.6118 724.048 49.6118C736.81 49.6118 743.172 57.1598 743.486 66.6865C743.737 74.2358 739.126 86.9971 729.982 114.858C724.845 127.981 725.238 134.453 729.2 134.632C735.148 135.172 743.161 122.049 749.732 108.746C750.746 106.77 751.441 106.052 752.338 106.052C753.602 106.23 754.36 107.31 753.021 110.365C748.185 121.69 732.952 155.664 708.978 153.684C694.562 152.608 690.538 145.057 690.804 136.79C691.141 130.676 692.945 125.465 698.234 111.445C705.313 91.8505 710.265 78.5491 710.152 75.1358C710.069 72.6198 708.95 71.3585 706.972 71.3585C701.221 71.3585 687.498 80.3465 674.704 117.374C670.945 128.7 672.47 136.79 672.39 139.845C672.461 147.393 662.552 152.068 654.282 152.068C641.698 152.068 631.974 146.136 637.49 128.16L667.477 29.4771C669.884 20.2625 674.305 11.1491 672.901 11.1131Z" fill="white"/>
<path d="M74.7884 78.1717C69.2697 78.1717 68.535 76.1463 69.8217 71.9183L85.4564 20.7823C88.583 10.4837 93.5484 9.01031 98.6977 9.01031C107.16 9.01031 112.862 16.185 112.862 30.5317C112.862 49.4757 97.2283 78.1717 74.7884 78.1717ZM135.118 149.908C126.104 149.908 124.082 143.468 121.138 120.476C117.644 93.6223 107.343 87.5517 94.2843 83.873C90.7883 82.9517 92.079 80.7463 95.755 80.7463C130.887 79.825 145.616 54.9943 145.616 33.4757C145.616 14.8983 136.588 5.51566 103.112 5.51566H40.203C38.8764 5.51566 38.611 6.88098 38.611 6.88098C38.3524 7.92366 39.231 8.98633 40.011 8.98633C54.7777 8.98633 48.643 27.6623 47.8604 30.1637L17.8764 128.017C12.3617 146.228 9.53369 149.908 3.12702 149.908C0.917691 149.908 -0.000976562 150.457 -0.000976562 151.746C-0.000976562 153.034 0.917691 153.4 3.12702 153.4C13.4244 153.4 19.6697 152.665 25.7364 152.665H31.9297C38.1857 152.665 42.3337 153.4 52.635 153.4C55.027 153.4 55.7617 152.848 55.7617 151.561C55.7617 150.273 55.027 149.908 52.635 149.908C45.5497 149.908 47.0137 146.228 52.715 128.017L65.591 86.081C67.0617 81.665 68.1657 80.377 72.027 80.377C75.8897 80.377 76.6283 82.4023 77.363 89.0223L82.1457 126.364C84.9044 150.825 85.4564 152.848 134.014 153.4C136.588 153.4 137.692 152.665 137.692 151.009C137.692 150.273 136.958 149.908 135.118 149.908Z" fill="white"/>
</g>
</svg>
