<svg width="1233" height="192" viewBox="0 0 1233 192" fill="none" xmlns="http://www.w3.org/2000/svg">
<path d="M1057.8 95.9379C1059.39 100.337 1049.06 107.175 1054.98 129.028C1060.93 121.255 1066.91 113.896 1063.61 102.632C1062.15 97.6451 1066.84 93.4258 1070.77 93.4218C1072.56 93.4204 1073.14 94.6518 1074.26 97.677C1077.43 105.846 1077.72 118.134 1077.01 129.636C1081.71 121.56 1085.16 109.732 1085.5 97.8263C1085.54 94.4973 1086.69 93.2858 1088.47 93.2845C1092.67 93.2792 1098.17 96.0978 1098.12 98.5206C1097.24 116.279 1078.81 138.164 1068.96 146.171L1067.53 146.172C1067.77 138.502 1068.88 130.093 1067.87 122.73C1062.37 130.605 1052.49 139.178 1046.52 146.145L1045.2 146.147C1044.6 146.127 1043.97 128.789 1043.89 127.311C1043.74 124.473 1043.63 121.625 1043.4 118.795C1043.14 115.448 1042.6 112.339 1042.55 108.896C1042.48 104.378 1044.31 98.0648 1046.64 94.3413C1048.86 90.7817 1055.96 90.8843 1057.8 95.9379Z" fill="white"/>
<path d="M742.616 119.247L756.691 92.9042C757.565 91.2396 758.255 88.1891 758.222 86.1581L758.188 84.0325C757.967 75.0715 755.474 72.7646 749.822 72.4928C744.26 72.7766 741.76 75.0875 741.572 84.0498L740.97 118.694C740.921 120.728 741.66 120.912 742.616 119.247ZM754.811 145.196L757.739 97.1514C757.871 95.1204 757.215 94.9352 756.258 96.5984L729.93 145.405C729.611 145.96 728.801 146.515 728.146 146.517L723.971 146.521C723.317 146.521 722.816 145.874 722.805 145.228L723.647 84.0671C723.823 74.5504 721.582 72.5221 716.179 72.5274C715.197 72.5274 714.948 72.3422 714.939 71.6958C714.928 71.0495 715.17 70.7723 716.152 70.7709C720.245 70.7669 726.635 71.1294 729.091 71.1268L735.72 71.1201C738.095 71.1188 743.82 70.8363 748.402 70.739L748.894 70.7376C749.221 70.7376 749.548 70.7376 749.876 70.7376L750.858 70.7363C751.023 70.7363 751.267 70.7363 751.432 70.7363C755.935 70.8242 761.588 71.0948 763.961 71.0921L770.346 71.0855C772.964 71.0828 779.671 70.707 783.929 70.703C784.91 70.7016 785.241 70.8869 785.251 71.5332C785.262 72.1809 784.937 72.4581 783.955 72.4594C778.307 72.4648 775.556 74.4985 774.97 84.0165L772.871 117.186C772.74 119.217 773.317 119.494 774.189 117.737L792.212 82.2427C796.422 74.0174 795.497 72.4475 789.767 72.4528C788.785 72.4541 788.454 72.2689 788.445 71.6225C788.434 70.9762 788.757 70.6976 789.74 70.6976C792.522 70.695 795.066 71.0628 798.667 71.0588C801.288 71.0561 804.065 70.683 806.439 70.6803C807.175 70.6803 807.505 70.8642 807.515 71.5119C807.526 72.1583 807.202 72.4355 806.466 72.4368C801.637 72.4408 797.977 74.016 793.768 82.2414L761.854 145.373C761.534 145.928 760.724 146.483 760.07 146.485L755.895 146.489C755.241 146.489 754.74 145.844 754.811 145.196Z" fill="white"/>
<path d="M799.025 116.052C806.269 113.458 808.57 108.744 808.481 103.108C808.403 98.1189 807.227 96.1799 805.508 96.1812C801.66 96.1852 798.435 104.504 796.527 113.374C796.149 115.316 797.234 116.609 799.025 116.052ZM780.316 128.82C780.041 111.267 792.778 93.5158 806.202 93.5025C812.996 93.4958 818.136 97.6485 818.234 103.929C818.325 109.659 811.284 114.747 799.043 117.16C797.247 117.44 795.557 119.382 795.26 121.321C795.051 123.63 794.92 125.664 794.949 127.511C795.056 134.348 798.779 136.839 802.053 136.836C806.555 136.831 815.108 128.892 818.228 119.095C818.501 118.246 818.892 117.875 819.219 117.848C819.641 117.816 819.957 118.354 819.786 119.187C818.647 124.823 807.688 146.438 795.247 146.451C786.814 146.459 780.501 140.553 780.316 128.82Z" fill="white"/>
<path d="M977.113 116.052C984.357 113.458 986.658 108.744 986.569 103.108C986.49 98.1189 985.315 96.1799 983.596 96.1812C979.748 96.1852 976.523 104.504 974.615 113.374C974.236 115.316 975.322 116.609 977.113 116.052ZM958.404 128.82C958.129 111.267 970.866 93.5158 984.289 93.5025C991.084 93.4958 996.224 97.6485 996.322 103.929C996.412 109.659 989.372 114.747 977.131 117.16C975.335 117.44 973.645 119.382 973.348 121.321C973.139 123.63 973.008 125.664 973.037 127.511C973.144 134.348 976.867 136.839 980.141 136.836C984.643 136.831 993.196 128.892 996.316 119.095C996.589 118.246 996.98 117.875 997.307 117.848C997.729 117.816 998.045 118.354 997.874 119.187C996.735 124.823 985.776 146.438 973.335 146.451C964.903 146.459 958.589 140.553 958.404 128.82Z" fill="white"/>
<path d="M838.347 134.956C842.112 134.952 848.253 124.691 850.182 117.205C851.955 110.182 852.058 106.301 852.031 104.64C851.961 100.204 851.019 97.5271 848.891 97.5284C843.079 97.5351 835.636 118.698 835.804 129.414C835.862 133.11 836.709 134.957 838.347 134.956ZM821.265 131.463C820.986 113.725 834.099 93.7556 846.458 93.7436C851.86 93.7382 853.813 98.1708 854.707 102.974C854.985 105.006 855.752 105.129 856.294 103.188L856.996 100.647C857.621 98.7065 858.471 97.703 860.846 97.7003C866.002 97.6963 868.791 92.7974 871.328 92.7947C872.392 92.7934 872.846 93.493 872.452 94.9177C870.195 103.095 867.915 111.051 865.752 119.183L863.855 126.049C861.837 132.98 861.773 135.948 863.574 135.946C866.277 136.036 869.604 129.012 872.278 121.987C872.75 120.878 872.991 120.509 873.401 120.509C873.973 120.508 874.309 121.061 873.762 122.725C871.809 128.64 865.706 146.662 854.818 146.487C848.265 146.309 846.972 142.292 846.795 140.084C846.545 136.955 848.29 133.095 850.067 125.739L850.609 123.774C850.919 122.664 850.672 122.286 850.18 122.286C849.771 122.287 849.367 122.564 848.972 123.489C844.711 133.656 839.752 146.317 831.158 146.326C825.181 146.331 821.402 140.146 821.265 131.463Z" fill="white"/>
<path d="M889.452 133.15C889.004 135.217 890.251 136.586 891.807 136.584C894.918 136.582 898.108 131.848 901.575 123.253C901.889 122.422 902.54 122.143 902.785 122.143C903.194 122.143 903.366 122.604 903.133 123.436C900.891 131.845 891.785 146.266 882.618 146.276C876.806 146.281 874.216 142.865 874.133 137.601C874.072 133.812 875.588 128.919 877.336 122.723L883.686 99.4344C883.998 98.4189 884.056 96.9396 882.419 96.9423L878.16 96.9463C877.423 96.9476 877.171 96.5785 877.167 96.3013C877.158 95.7469 877.641 95.1911 878.46 95.1911C889.346 95.1791 897.134 89.1661 901.582 80.5689C902.062 79.8306 902.629 79.4601 903.121 79.4601C903.693 79.4601 904.028 79.9199 903.874 80.5676L900.286 93.5053C899.898 94.7993 900.248 96.092 901.967 96.0907C905.077 96.088 907.93 95.3457 910.96 95.3431C911.613 95.3431 911.95 95.8975 911.958 96.4505C911.97 97.1902 911.491 97.9285 910.591 97.9298L901.021 97.9391C899.956 97.9405 898.904 98.6814 898.44 100.345L892.083 123.328C891.306 125.916 889.748 131.788 889.452 133.15Z" fill="white"/>
<path d="M998.89 106.842C998.375 106.337 999.028 104.734 999.328 104.13C1002.37 98.0168 1007.41 92.9686 1013.24 93.2085C1019.79 93.479 1021.74 97.2652 1021.72 101.515C1021.69 104.656 1020.42 107.152 1017.99 114.454L1014.56 124.896C1014.17 126.098 1015.72 126.096 1016.11 124.986C1024.18 102.068 1028.3 93.3791 1036.08 93.3711C1039.93 93.3671 1041.6 95.8605 1041.65 98.9097C1041.73 103.529 1038.84 107.688 1035 107.692C1032.87 107.695 1031.7 106.402 1030.06 106.403C1027.85 106.406 1022.42 109.83 1015.92 128.405C1014.13 134.227 1015.54 138.385 1015.49 139.955C1015.47 143.834 1010.92 146.241 1007.15 146.245C1001.42 146.251 997.037 143.207 999.676 133.965L1004.23 113.636C1005.9 106.645 1006.12 103.565 1004.32 103.473C1003.78 103.455 1003.24 103.451 1002.51 104.275C999.917 107.198 999.384 107.327 998.89 106.842Z" fill="white"/>
<path d="M1113.66 115.881C1120.9 113.287 1123.2 108.574 1123.11 102.938C1123.03 97.948 1121.86 96.009 1120.14 96.0103C1116.29 96.0143 1113.07 104.333 1111.16 113.203C1110.78 115.145 1111.87 116.436 1113.66 115.881ZM1094.95 128.649C1094.67 111.096 1107.41 93.3449 1120.83 93.3316C1127.63 93.3249 1132.77 97.4762 1132.87 103.759C1132.96 109.488 1125.92 114.575 1113.67 116.989C1111.88 117.269 1110.19 119.211 1109.89 121.15C1109.68 123.46 1109.55 125.493 1109.58 127.34C1109.69 134.177 1113.41 136.668 1116.68 136.665C1121.19 136.66 1129.74 128.721 1132.86 118.923C1133.13 118.074 1133.52 117.704 1133.85 117.677C1134.27 117.645 1134.59 118.183 1134.42 119.015C1133.28 124.652 1122.32 146.267 1109.88 146.28C1101.45 146.288 1095.13 140.382 1094.95 128.649Z" fill="white"/>
<path d="M920.518 73.6038C918.991 73.5612 916.728 73.7504 915.577 73.7504C914.59 73.7504 914.006 73.4772 913.989 72.9308C913.97 72.2925 914.369 71.8367 915.684 71.8367C918.644 71.8367 923.436 70.9744 927.187 69.8816C930.696 68.9701 933.872 67.9679 935.27 67.9679C936.42 67.9679 936.605 68.6063 936.233 69.8816C933.916 77.7205 930.804 86.3829 928.431 95.0427L921.964 118.017C921.671 119.2 921.769 119.748 922.344 119.748C922.919 119.748 923.232 119.2 923.692 118.107C928.433 106.165 934.705 93.129 943.916 93.129C949.754 93.129 952.664 96.9564 952.808 101.789C952.922 105.618 950.814 112.09 946.631 126.221C944.28 132.875 944.461 136.159 946.272 136.249C948.994 136.522 952.659 129.867 955.665 123.121C956.129 122.119 956.447 121.754 956.858 121.754C957.436 121.844 957.782 122.392 957.17 123.942C954.957 129.686 947.989 146.915 937.022 145.911C930.426 145.366 928.586 141.536 928.708 137.343C928.861 134.242 929.687 131.6 932.107 124.488C935.345 114.552 937.61 107.804 937.558 106.075C937.521 104.798 937.009 104.158 936.104 104.158C933.473 104.158 927.195 108.717 921.342 127.496C919.622 133.24 920.321 137.343 920.283 138.893C920.316 142.721 915.783 145.092 912 145.092C906.244 145.092 901.795 142.084 904.318 132.967L918.037 82.9179C919.138 78.2442 921.161 73.6225 920.518 73.6038Z" fill="white"/>
<path d="M1152.44 134.646C1156.21 134.642 1162.35 124.382 1164.28 116.896C1166.05 109.873 1166.15 105.993 1166.13 104.33C1166.06 99.8949 1165.11 97.2175 1162.99 97.2188C1157.17 97.2255 1149.73 118.389 1149.9 129.105C1149.96 132.8 1150.81 134.647 1152.44 134.646ZM1135.36 131.153C1135.08 113.415 1148.19 93.446 1160.55 93.434C1165.96 93.4287 1167.91 97.8612 1168.8 102.664C1169.08 104.697 1169.85 104.819 1170.39 102.879L1171.09 100.337C1171.72 98.3969 1172.57 97.3934 1174.94 97.3908C1180.1 97.3868 1182.89 92.4878 1185.42 92.4851C1186.49 92.4838 1186.94 93.1835 1186.55 94.6081C1184.29 102.785 1182.01 110.742 1179.85 118.874L1177.95 125.74C1175.93 132.671 1175.87 135.639 1177.67 135.636C1180.37 135.727 1183.7 128.702 1186.37 121.678C1186.85 120.569 1187.09 120.2 1187.5 120.2C1188.07 120.198 1188.41 120.751 1187.86 122.416C1185.9 128.33 1179.8 146.352 1168.91 146.178C1162.36 145.999 1161.07 141.982 1160.89 139.774C1160.64 136.645 1162.39 132.786 1164.16 125.429L1164.7 123.465C1165.01 122.355 1164.77 121.976 1164.28 121.976C1163.87 121.977 1163.46 122.255 1163.07 123.18C1158.81 133.347 1153.85 146.007 1145.25 146.016C1139.28 146.022 1135.5 139.837 1135.36 131.153Z" fill="white"/>
<path d="M1190.06 106.659C1189.54 106.155 1190.19 104.551 1190.5 103.947C1193.54 97.8342 1198.58 92.7847 1204.41 93.0259C1210.96 93.2964 1212.9 97.0826 1212.89 101.332C1212.86 104.474 1211.58 106.97 1209.16 114.272L1205.72 124.713C1205.33 125.915 1206.89 125.914 1207.28 124.804C1215.35 101.886 1219.47 93.1965 1227.25 93.1885C1231.1 93.1845 1232.77 95.6779 1232.82 98.7271C1232.89 103.346 1230.01 107.505 1226.16 107.509C1224.03 107.512 1222.87 106.219 1221.23 106.221C1219.02 106.223 1213.59 109.647 1207.09 128.222C1205.3 134.045 1206.71 138.203 1206.65 139.772C1206.63 143.652 1202.09 146.059 1198.32 146.063C1192.59 146.068 1188.2 143.024 1190.84 133.782L1195.4 113.453C1197.07 106.462 1197.28 103.382 1195.48 103.29C1194.95 103.273 1194.41 103.269 1193.68 104.092C1191.08 107.015 1190.55 107.144 1190.06 106.659Z" fill="white"/>
<path d="M325.218 118.796C323.715 124.886 323.065 131.283 323.041 137.68C323.037 138.677 323.024 139.675 323.027 140.672C323.036 148.292 313.977 152.777 306.447 152.582C297.446 152.35 290.166 148.713 289.931 138.364C289.865 135.459 290.442 132.028 291.645 127.34L318.53 29.141C322.163 16.1713 324.738 11.1924 323.499 11.1924C318.906 11.1924 315.981 11.5442 313.69 11.4843C311.727 11.4336 310.569 10.8592 310.545 9.77177C310.517 8.50172 311.312 7.61282 313.932 7.68079C319.823 7.83272 329.447 5.65244 336.927 3.6694C343.925 2.03554 350.261 0.204422 353.044 0.276398C355.335 0.335037 355.692 1.61441 354.93 4.13451C350.212 19.6163 343.892 36.6933 339.048 53.8063L327.044 94.3239C326.443 96.6641 326.963 97.8782 328.109 97.9781C328.815 98.0394 329.454 97.617 329.781 97.4264L330.143 97.1665C339.421 90.7483 343.353 81.053 346.381 76.0821C348.776 72.1467 351.178 67.4517 349.774 62.7913C355.534 60.4791 361.938 59.9287 368.111 61.216C370.5 61.7145 373.001 62.5807 374.642 64.6091C377.204 67.7768 376.757 72.6252 375.229 76.3233C372.789 82.2311 367.668 92.5421 362.531 97.2612L361.487 98.298C358.114 101.111 356.388 104.335 359.011 111.842C361.474 119.345 368.942 131.331 374.508 131.475C380.398 131.627 385.751 122.33 392.095 106.343C393.644 102.573 396.456 103.917 395.371 106.611C385.298 138.468 367.001 153.963 356.2 153.683C342.616 153.333 340.96 138.051 337.278 119.989C336.266 115.158 335.499 107.997 333.592 103.579C332.432 100.894 329.715 106.513 329.306 107.352C327.54 110.98 326.198 114.823 325.218 118.796Z" fill="white"/>
<path d="M158.299 147.076C170.739 147.076 185.497 92.472 185.497 65.9996C185.497 57.9115 183.508 54.4172 179.858 54.4172C167.422 54.4172 152.662 109.204 152.662 135.31C152.662 143.213 154.488 147.076 158.299 147.076ZM124.805 114.535C124.805 79.605 148.517 48.1656 178.2 48.1656C197.603 48.1656 213.19 63.0583 213.19 86.9587C213.19 121.706 189.475 153.326 159.792 153.326C140.558 153.326 124.805 138.435 124.805 114.535Z" fill="white"/>
<path d="M217.503 117.659C217.503 85.3032 241.051 47.9827 270.236 47.9827C282.342 47.9827 291.461 56.6238 291.461 71.8817C291.461 81.9954 285.161 92.8408 276.207 92.8408C270.569 92.8408 267.086 88.7975 267.086 83.2815C267.086 74.4551 277.7 71.1474 277.7 61.7706C277.7 57.7246 276.041 53.1295 271.894 53.1295C260.285 53.1295 247.848 86.4066 247.848 111.227C247.848 123.91 250.502 134.023 259.457 134.023C267.749 134.023 276.041 126.117 285.659 104.238C287.149 100.564 289.803 101.665 288.808 104.423C277.531 137.883 263.935 153.327 245.693 153.327C229.111 153.327 217.503 140.456 217.503 117.659Z" fill="white"/>
<path d="M341.547 177.505C341.547 170.883 346.027 163.711 354.32 163.711C364.773 163.711 368.425 181.185 374.396 181.185C379.707 181.185 381.201 172.356 392.649 131.704L412.725 59.4123C413.057 57.3893 412.725 55.3676 410.069 55.3676H399.949C396.963 55.3676 397.626 51.8706 400.611 51.8706C408.08 51.8706 414.882 51.135 416.706 45.0646L417.369 42.859C423.841 21.1536 442.258 0.0012207 468.639 0.0012207C496.513 0.0012207 504.81 13.6133 504.81 20.9683C504.81 27.9596 499.333 34.7656 492.532 34.7656C477.763 34.7656 469.137 8.27718 454.039 8.27718C451.218 8.27718 449.061 10.3002 448.728 15.8188C448.397 25.1996 447.401 41.9381 446.24 47.6393L445.742 50.0315C445.409 52.6062 446.075 53.711 448.562 53.711C481.746 53.711 490.684 48.1577 499.643 48.1577C502.299 48.1577 501.987 49.4451 501.159 52.0199L484.18 113.366C479.93 126.548 479.423 133.455 483.074 133.639C488.549 134.005 496.016 120.209 502.155 106.597C503.15 104.392 503.649 103.653 504.477 103.653C505.638 103.84 506.301 104.758 504.975 108.071C500.494 119.843 486.393 154.975 464.324 153.688C451.053 152.952 448.774 145.855 449.104 137.393C449.437 131.139 451.884 125.028 455.689 110.546L468.619 64.711C469.78 60.8489 467.787 57.7224 464.139 57.7224L447.567 57.3893C445.409 57.3893 443.087 58.8632 442.258 61.9897L424.838 125.266C414.882 161.503 383.688 191.3 355.979 191.3C345.195 191.3 341.547 185.047 341.547 177.505Z" fill="white"/>
<path d="M499.743 130.707C499.743 125.557 503.557 119.859 509.693 119.859C515.829 119.859 519.311 122.618 521.8 130.707C524.784 141.37 529.759 147.989 534.236 147.989C538.878 147.989 541.368 144.311 541.368 136.957C541.368 129.052 536.392 121.145 530.754 114.343L527.438 109.932C521.467 102.394 516.492 94.6711 516.492 83.274C516.492 62.131 534.236 48.1578 554.964 48.1578C573.207 48.1578 580.005 59.3723 580.005 66.3609C580.005 73.7147 576.026 77.9406 570.055 77.9406C565.08 77.9406 560.273 73.8972 558.281 66.1743C556.457 58.4541 554.467 53.859 548.994 53.859C544.351 53.859 540.206 57.7198 540.206 65.44C540.206 72.4286 545.182 80.1489 550.985 87.6852L553.638 91.546C559.94 100.003 565.578 108.644 565.578 119.492C565.578 137.509 550.322 153.688 530.092 153.688C516.989 153.688 499.743 144.677 499.743 130.707Z" fill="white"/>
<path d="M606.662 11.1083C603.653 11.0244 599.192 11.3975 596.924 11.3975C594.981 11.3975 593.829 10.8578 593.796 9.7823C593.759 8.52559 594.544 7.62604 597.137 7.62604C602.969 7.62604 612.414 5.92686 619.804 3.77324C626.72 1.97679 632.979 0.000411987 635.734 0.000411987C638.003 0.000411987 638.366 1.25847 637.631 3.77324C633.067 19.2231 626.934 36.2921 622.259 53.3597L609.512 98.635C608.934 100.969 609.128 102.047 610.261 102.047C611.396 102.047 612.011 100.969 612.92 98.8136C622.263 75.2784 634.622 49.5882 652.774 49.5882C664.28 49.5882 670.015 57.1326 670.299 66.6546C670.525 74.2003 666.368 86.9554 658.124 114.803C653.493 127.919 653.847 134.388 657.419 134.567C662.781 135.107 670.006 121.99 675.93 108.694C676.844 106.719 677.471 106.001 678.28 106.001C679.419 106.179 680.102 107.259 678.895 110.312C674.535 121.632 660.801 155.589 639.188 153.61C626.191 152.534 622.563 144.987 622.802 136.724C623.107 130.613 624.733 125.405 629.502 111.391C635.883 91.8064 640.348 78.5115 640.246 75.0998C640.171 72.585 639.163 71.3243 637.379 71.3243C632.194 71.3243 619.822 80.308 608.287 117.318C604.899 128.638 606.274 136.724 606.202 139.778C606.265 147.322 597.332 151.994 589.876 151.994C578.531 151.994 569.764 146.065 574.737 128.098L601.772 29.4634C603.942 20.2532 607.928 11.1443 606.662 11.1083Z" fill="white"/>
<path d="M67.4271 78.135C62.4517 78.135 61.7894 76.1106 62.9494 71.8847L77.045 20.7736C79.8639 10.4799 84.3404 9.00734 88.9829 9.00734C96.6125 9.00734 101.753 16.1785 101.753 30.5182C101.753 49.453 87.6582 78.135 67.4271 78.135ZM121.818 149.836C113.692 149.836 111.868 143.399 109.214 120.418C106.064 93.5781 96.7772 87.5104 85.004 83.8336C81.8521 82.9127 83.0157 80.7084 86.3299 80.7084C118.004 79.7875 131.283 54.9689 131.283 33.4608C131.283 14.8925 123.144 5.51437 92.963 5.51437H36.2464C35.0503 5.51437 34.8111 6.87904 34.8111 6.87904C34.5779 7.9212 35.37 8.98335 36.0733 8.98335C49.3863 8.98335 43.8555 27.6503 43.1499 30.1504L16.1175 127.956C11.1457 146.158 8.59608 149.836 2.82008 149.836C0.828235 149.836 0 150.385 0 151.674C0 152.961 0.828235 153.326 2.82008 153.326C12.1038 153.326 17.7343 152.592 23.2038 152.592H28.7874C34.4276 152.592 38.1673 153.326 47.4546 153.326C49.6111 153.326 50.2734 152.775 50.2734 151.489C50.2734 150.201 49.6111 149.836 47.4546 149.836C41.0667 149.836 42.3866 146.158 47.5267 127.956L59.1352 86.0405C60.4611 81.6266 61.4564 80.3393 64.9376 80.3393C68.4201 80.3393 69.086 82.3636 69.7484 88.9804L74.0602 126.304C76.5473 150.753 77.045 152.775 120.822 153.326C123.144 153.326 124.139 152.592 124.139 150.937C124.139 150.201 123.477 149.836 121.818 149.836Z" fill="white"/>
</svg>
