<svg xmlns:dc="http://purl.org/dc/elements/1.1/" xmlns:cc="http://creativecommons.org/ns#" xmlns:rdf="http://www.w3.org/1999/02/22-rdf-syntax-ns#" xmlns:svg="http://www.w3.org/2000/svg" xmlns="http://www.w3.org/2000/svg" viewBox="0 0 255.36533 153.68401" height="153.68401" width="255.36533" xml:space="preserve" id="svg2" version="1.1"><metadata id="metadata8"><rdf><work rdf:about=""><format>image/svg+xml</format><type rdf:resource="http://purl.org/dc/dcmitype/StillImage"></type></work></rdf></metadata><defs id="defs6"><clipPath id="clipPath18" clipPathUnits="userSpaceOnUse"><path id="path16" d="M 0,115.263 H 191.524 V 0 H 0 Z"></path></clipPath></defs><g transform="matrix(1.3333333,0,0,-1.3333333,0,153.684)" id="g10"><g id="g12"><g clip-path="url(#clipPath18)" id="g14"><g transform="translate(191.5241,78.7825)" id="g20"><path id="path22" style="fill:#142a74;fill-opacity:1;fill-rule:nonzero;stroke:none" d="M 0,0 V 21.307 C -15.568,18.332 -30.585,11.098 -42.131,4.258 -23.687,4.18 -10.001,2.35 0,0"></path></g><g transform="translate(159.9552,114.6474)" id="g24"><path id="path26" style="fill:#142a74;fill-opacity:1;fill-rule:nonzero;stroke:none" d="m 0,0 c -4.768,0.382 -10.171,0.615 -16.312,0.615 -11.58,0 -20.579,-0.816 -27.499,-1.937 V -24.189 C -34.551,-17.533 -18.802,-7.389 0,0"></path></g><g transform="translate(116.1446,80.9409)" id="g28"><path id="path30" style="fill:#e50012;fill-opacity:1;fill-rule:nonzero;stroke:none" d="m 0,0 c 5.986,0.883 12.463,1.488 19.392,1.816 13.044,8.666 33.886,20.359 55.962,24.118 l -0.005,0.022 H 75.341 C 74.907,26.277 70.48,29.375 58.754,31.709 30.997,23.416 0,0 0,0"></path></g><g transform="translate(0,36.4802)" id="g32"><path id="path34" style="fill:#142a74;fill-opacity:1;fill-rule:nonzero;stroke:none" d="m 0,0 v -21.307 c 15.568,2.975 30.585,10.209 42.131,17.049 C 23.687,-4.18 10.001,-2.35 0,0"></path></g><g transform="translate(31.5689,0.6153)" id="g36"><path id="path38" style="fill:#142a74;fill-opacity:1;fill-rule:nonzero;stroke:none" d="m 0,0 c 4.768,-0.382 10.171,-0.615 16.312,-0.615 11.58,0 20.579,0.816 27.499,1.937 V 24.189 C 34.551,17.533 18.803,7.389 0,0"></path></g><g transform="translate(75.3796,34.3218)" id="g40"><path id="path42" style="fill:#e50012;fill-opacity:1;fill-rule:nonzero;stroke:none" d="m 0,0 c -5.987,-0.883 -12.463,-1.488 -19.392,-1.816 -13.044,-8.666 -33.886,-20.359 -55.962,-24.118 l 0.005,-0.022 h 0.007 c 0.435,-0.321 4.862,-3.419 16.588,-5.753 C -30.997,-23.416 0,0 0,0"></path></g><g transform="translate(148.1823,75.3382)" id="g44"><path id="path46" style="fill:#e50012;fill-opacity:1;fill-rule:nonzero;stroke:none" d="m 0,0 c -3.945,0 -7.636,-0.086 -11.114,-0.236 -4.975,-0.216 -9.495,-0.568 -13.577,-1.023 -1.034,-0.116 -2.034,-0.239 -3.013,-0.367 -3.665,-0.477 -6.957,-1.034 -9.902,-1.64 -1.445,-0.296 -2.815,-0.603 -4.098,-0.919 v 3.997 7.826 28.291 c -6.103,-1.742 -15.801,-7.309 -21.433,-8.741 v -40.136 c -5.486,-2.062 -17.982,-5.37 -41.704,-5.37 -26.489,0 -38.979,4.124 -43.341,6.033 v -18.529 c 9.327,-2.466 23.213,-4.6 43.341,-4.6 18.988,0 32.413,1.9 41.704,4.185 v -41.737 c 5.024,1.361 16.882,7.582 21.433,8.74 v 41.76 c 5.487,2.062 17.983,5.37 41.704,5.37 26.489,0 38.979,-4.124 43.342,-6.032 V -4.6 C 34.014,-2.134 20.128,0 0,0"></path></g><g transform="translate(75.3796,73.7039)" id="g48"><path id="path50" style="fill:#142a74;fill-opacity:1;fill-rule:nonzero;stroke:none" d="m 0,0 v 26.764 c -6.92,-1.121 -15.918,-1.937 -27.499,-1.937 -8.34,0 -15.332,0.425 -21.186,1.081 C -40.18,17.059 -25.077,5.914 0,0"></path></g><g transform="translate(0,94.8954)" id="g52"><path id="path54" style="fill:#142a74;fill-opacity:1;fill-rule:nonzero;stroke:none" d="m 0,0 v -22.492 c 3.79,-1.735 16.592,-6.813 37.919,-7.574 C 18.358,-20.496 6.531,-8.496 0,0"></path></g><g transform="translate(17.0283,101.0618)" id="g56"><path id="path58" style="fill:#e50012;fill-opacity:1;fill-rule:nonzero;stroke:none" d="m 0,0 c -12.035,2.342 -17.028,5.835 -17.028,5.835 0,0 15.259,-28.009 52.194,-41.99 10.916,0.448 18.403,1.679 23.185,2.818 C 25.731,-26.121 8.274,-10.213 0,0"></path></g><g transform="translate(116.1446,41.3147)" id="g60"><path id="path62" style="fill:#142a74;fill-opacity:1;fill-rule:nonzero;stroke:none" d="m 0,0 v -26.764 c 6.92,1.121 15.918,1.937 27.498,1.937 8.341,0 15.333,-0.425 21.187,-1.081 C 40.18,-17.059 25.077,-5.914 0,0"></path></g><g transform="translate(191.5241,20.1231)" id="g64"><path id="path66" style="fill:#142a74;fill-opacity:1;fill-rule:nonzero;stroke:none" d="m 0,0 v 22.492 c -3.789,1.735 -16.592,6.813 -37.919,7.575 C -18.358,20.496 -6.531,8.496 0,0"></path></g><g transform="translate(174.4958,13.9568)" id="g68"><path id="path70" style="fill:#e50012;fill-opacity:1;fill-rule:nonzero;stroke:none" d="m 0,0 c 12.035,-2.342 17.028,-5.835 17.028,-5.835 0,0 -15.259,28.009 -52.194,41.99 C -46.082,35.707 -53.569,34.476 -58.351,33.337 -25.73,26.121 -8.274,10.213 0,0"></path></g></g></g></g></svg>